<?xml version="1.0" standalone="no"?>
<!DOCTYPE svg PUBLIC "-//W3C//DTD SVG 20010904//EN"
 "http://www.w3.org/TR/2001/REC-SVG-20010904/DTD/svg10.dtd">
<svg version="1.0" xmlns="http://www.w3.org/2000/svg"
 width="700.000000pt" height="700.000000pt" viewBox="0 0 700.000000 700.000000"
 preserveAspectRatio="xMidYMid meet">
<metadata>
Created by potrace 1.11, written by Peter Selinger 2001-2013
</metadata>
<g transform="translate(0.000000,700.000000) scale(0.100000,-0.100000)"
fill="#000000" stroke="none">
<path d="M3298 6995 c-1 -1 -41 -5 -88 -9 -178 -12 -388 -47 -581 -96 -650
-166 -1241 -521 -1708 -1026 -94 -103 -101 -111 -183 -216 -414 -531 -668
-1181 -726 -1858 -9 -110 -8 -503 1 -600 9 -81 25 -209 33 -250 2 -14 7 -41
10 -60 3 -19 7 -42 9 -50 2 -8 7 -30 10 -48 3 -18 21 -92 39 -165 235 -911
842 -1698 1666 -2163 254 -144 461 -230 785 -327 111 -33 354 -83 458 -93 34
-3 65 -8 68 -10 15 -9 234 -19 414 -19 183 0 335 8 425 21 144 21 295 48 345
61 33 8 67 16 75 18 109 22 388 117 550 188 459 199 905 524 1223 892 33 39
63 72 67 75 17 13 181 236 239 325 288 443 473 943 542 1461 38 296 31 756
-16 1014 -25 137 -40 208 -55 270 -193 773 -611 1421 -1246 1928 -42 34 -182
135 -205 148 -10 6 -27 17 -36 25 -10 8 -29 20 -43 28 -14 8 -54 33 -90 55
-241 147 -583 289 -895 371 -180 48 -263 63 -555 101 -47 6 -526 15 -532 9z
m361 -439 c90 -4 167 -8 170 -10 3 -2 33 -7 66 -10 213 -24 462 -88 746 -194
208 -78 540 -269 742 -429 507 -400 878 -947 1056 -1557 36 -122 85 -349 95
-441 2 -22 7 -62 10 -90 25 -208 20 -548 -9 -725 -2 -14 -6 -47 -10 -74 -3
-27 -8 -52 -9 -55 -2 -3 -7 -27 -10 -52 -27 -200 -161 -586 -289 -829 -77
-145 -249 -416 -287 -450 -3 -3 -30 -36 -61 -75 -134 -166 -310 -339 -486
-478 -67 -53 -291 -206 -323 -221 -8 -3 -42 -22 -75 -41 -205 -120 -563 -260
-775 -304 -25 -5 -81 -17 -125 -26 -44 -9 -98 -18 -120 -21 -22 -3 -50 -7 -63
-9 -13 -2 -56 -7 -95 -10 -40 -4 -85 -9 -102 -11 -43 -5 -374 -5 -410 1 -16 2
-59 6 -95 9 -104 8 -259 33 -375 60 -11 2 -40 9 -65 15 -284 65 -642 220 -915
396 -247 159 -506 388 -685 605 -35 41 -72 86 -84 101 -49 58 -186 263 -236
354 -193 345 -338 773 -374 1100 -2 22 -7 63 -10 90 -51 451 13 963 174 1390
152 404 370 749 669 1060 400 415 906 708 1461 845 127 32 254 56 345 66 33 3
69 8 80 10 11 2 81 7 155 10 74 4 137 8 139 10 2 2 7 2 10 0 3 -2 80 -7 170
-10z"/>
<path d="M3616 4661 c-2 -3 -7 -22 -12 -41 -10 -47 -10 -45 -29 -125 -9 -38
-19 -78 -21 -87 -2 -10 -6 -26 -8 -35 -11 -46 -48 -200 -51 -213 -8 -34 -117
-486 -120 -500 -8 -29 -24 -95 -29 -120 -3 -14 -12 -54 -21 -90 -9 -36 -18
-72 -20 -80 -13 -58 -59 -252 -68 -285 -6 -22 -12 -49 -14 -60 -2 -11 -8 -38
-14 -60 -6 -22 -13 -47 -14 -55 -2 -8 -33 -138 -69 -289 -36 -150 -66 -277
-66 -282 0 -6 67 -8 158 -7 l157 3 52 210 c29 116 54 219 57 230 2 11 20 88
41 170 20 83 50 206 66 275 17 69 45 188 64 265 19 77 47 196 64 265 16 69 49
202 71 295 23 94 43 177 45 185 16 68 87 363 95 391 5 20 10 39 10 42 0 9
-319 6 -324 -2z"/>
<path d="M2610 4214 c-157 -69 -379 -166 -495 -216 -115 -49 -223 -96 -240
-104 -16 -7 -136 -59 -265 -114 -129 -56 -237 -105 -240 -110 -4 -7 -5 -302
-1 -362 0 -10 6 -18 12 -18 6 0 77 -29 157 -64 81 -35 388 -169 682 -297 294
-128 569 -247 610 -265 41 -18 77 -31 80 -29 6 4 5 423 -1 429 -2 2 -143 58
-314 125 -331 131 -332 131 -385 154 -19 8 -107 43 -195 77 -88 35 -163 66
-167 69 -4 3 66 34 155 68 89 34 328 125 532 203 203 78 372 143 374 146 9 9
5 428 -4 430 -6 1 -138 -54 -295 -122z"/>
<path d="M4085 4124 l0 -216 230 -89 c127 -50 358 -140 515 -201 157 -60 296
-115 310 -120 23 -9 12 -15 -110 -64 -74 -30 -142 -57 -150 -61 -230 -88 -786
-307 -790 -310 -6 -5 -7 -433 -1 -433 6 0 569 245 659 286 40 19 75 34 78 34
3 0 24 9 47 19 23 11 111 49 195 85 84 37 176 77 205 90 28 13 102 45 162 71
61 26 130 57 155 68 l45 22 0 182 0 182 -25 12 c-28 13 -494 214 -875 379
-137 59 -339 147 -448 194 -109 47 -199 86 -200 86 -1 0 -2 -97 -2 -216z"/>
</g>
</svg>
